 http://picturestack.com/265/909/KOavlcsnap201zT3.png
 
http://picturestack.com/267/765/l9Zinfo6OZ.png

Complete name                    :GloryHole 12 03 29 Blak Rose XXX 720 WMV-=Royal Hunter=-
Format                           : Windows Media
File size                        : 535 MiB
Duration                         : 16mn 15s
Overall bit rate                 : 4 604 Kbps
Maximum Overall bit rate         : 4 556 Kbps
Encoded date                     : UTC 1970-01-01 00:00:00.000
WM/EncodingSettings              : Lavf52.54.0

Video
ID                               : 1
Format                           : MPEG-4 Visual
Codec ID                         : MP43
Codec ID/Info                    : Microsoft MPEG-4 v3 (pre-standard)
Codec ID/Hint                    : Microsoft
Description of the codec         : msmpeg4
Duration                         : 16mn 15s
Bit rate                         : 4 357 Kbps
Width                            : 1 280 pixels
Height                           : 720 pixels
Display aspect ratio             : 16:9
Frame rate                       : 29.970 fps
Bit depth                        : 8 bits
Compression mode                 : Lossy
Bits/(Pixel*Frame)               : 0.158
Stream size                      : 507 MiB (95%)

Audio
ID                               : 2
Format                           : WMA
Format version                   : Version 2
Codec ID                         : 161
Codec ID/Info                    : Windows Media Audio
Description of the codec         : Windows Media Audio V8
Duration                         : 16mn 15s
Bit rate                         : 56.0 Kbps
Channel(s)                       : 2 channels
Sampling rate                    : 22.05 KHz
Bit depth                        : 16 bits
Stream size                      : 6.51 MiB (1%)

 
http://picturestack.com/265/909/ekxscreensMHd.png


 
http://picturestack.com/265/909/KOavlcsnap201zT3.png
 
http://picturestack.com/265/909/TJhvlcsnap201Up5.png
 
http://picturestack.com/265/909/kqQvlcsnap201qTr.png
 
http://picturestack.com/265/909/mslvlcsnap201nGo.png
 
http://picturestack.com/265/909/3jDvlcsnap201qBI.png
 
http://picturestack.com/265/909/N7ovlcsnap20143H.png
 
http://picturestack.com/265/909/asWvlcsnap201Vwb.png
 
http://picturestack.com/265/909/Assvlcsnap201RID.png
 
http://picturestack.com/265/909/iR0vlcsnap201Mi3.png

